
<svg xmlns="http://www.w3.org/2000/svg" xmlns:xlink="http://www.w3.org/1999/xlink" width="208" zoomAndPan="magnify" viewBox="0 0 156 41.25" height="55" preserveAspectRatio="xMidYMid meet" version="1.0"><defs><g/><clipPath id="4ae0d8d148"><path d="M 53 39 L 55 39 L 55 40.511719 L 53 40.511719 Z M 53 39 " clip-rule="nonzero"/></clipPath><clipPath id="547fb93066"><path d="M 73 9 L 77.777344 9 L 77.777344 19 L 73 19 Z M 73 9 " clip-rule="nonzero"/></clipPath><clipPath id="2c323dc97a"><path d="M 43.160156 0 L 72 0 L 72 37 L 43.160156 37 Z M 43.160156 0 " clip-rule="nonzero"/></clipPath></defs><g clip-path="url(#4ae0d8d148)"><path fill="#f6f6e9" d="M 54.703125 39.882812 L 54.703125 39.207031 L 53.097656 39.207031 L 53.097656 39.882812 L 53.898438 40.511719 L 54.703125 39.882812 " fill-opacity="1" fill-rule="nonzero"/></g><path fill="#f6f6e9" d="M 53.097656 36.59375 L 53.097656 38.617188 L 54.703125 38.617188 L 54.703125 36.59375 L 53.097656 36.59375 " fill-opacity="1" fill-rule="nonzero"/><g clip-path="url(#547fb93066)"><path fill="#f6f6e9" d="M 75.070312 9.945312 L 73.050781 9.945312 L 73.050781 18.558594 L 75.070312 18.558594 C 76.5625 18.558594 77.773438 17.347656 77.773438 15.859375 L 77.773438 12.644531 C 77.773438 11.15625 76.5625 9.945312 75.070312 9.945312 " fill-opacity="1" fill-rule="nonzero"/></g><g clip-path="url(#2c323dc97a)"><path fill="#f6f6e9" d="M 63.828125 0 L 57.097656 0 C 53.921875 0 51.347656 2.570312 51.347656 5.742188 C 51.347656 8.917969 53.921875 11.488281 57.097656 11.488281 L 62.074219 11.488281 C 63.371094 11.488281 64.421875 12.566406 64.371094 13.875 C 64.324219 15.117188 63.261719 16.082031 62.015625 16.082031 L 46.820312 16.082031 C 44.804688 16.082031 43.167969 17.753906 43.226562 19.785156 C 43.285156 21.738281 44.941406 23.269531 46.898438 23.269531 L 57.328125 23.269531 C 57.769531 23.269531 58.125 23.648438 58.082031 24.101562 C 58.042969 24.492188 57.691406 24.78125 57.292969 24.78125 L 50.328125 24.78125 C 48.34375 24.78125 46.742188 26.421875 46.800781 28.414062 C 46.855469 30.332031 48.480469 31.832031 50.402344 31.832031 L 52.65625 31.832031 L 52.65625 34.214844 C 52.65625 34.472656 52.847656 34.6875 53.097656 34.726562 L 53.097656 36.003906 L 54.703125 36.003906 L 54.703125 34.726562 C 54.945312 34.683594 55.132812 34.46875 55.132812 34.214844 L 55.132812 29.359375 L 50.328125 29.359375 C 49.703125 29.359375 49.203125 28.808594 49.285156 28.167969 C 49.351562 27.640625 49.828125 27.257812 50.363281 27.257812 L 57.328125 27.257812 C 59.152344 27.257812 60.628906 25.738281 60.5625 23.898438 C 60.496094 22.152344 59 20.792969 57.25 20.792969 L 46.820312 20.792969 C 46.179688 20.792969 45.660156 20.25 45.707031 19.597656 C 45.742188 19.023438 46.285156 18.558594 46.863281 18.558594 L 61.984375 18.558594 C 64.59375 18.558594 66.785156 16.503906 66.847656 13.898438 C 66.910156 11.21875 64.746094 9.015625 62.074219 9.015625 L 57.097656 9.015625 C 55.289062 9.015625 53.824219 7.550781 53.824219 5.742188 C 53.824219 3.9375 55.289062 2.472656 57.097656 2.472656 L 63.933594 2.472656 C 66.828125 2.472656 69.175781 4.820312 69.175781 7.710938 L 69.175781 18.558594 L 71.652344 18.558594 L 71.652344 7.816406 C 71.652344 3.5 68.148438 0 63.828125 0 " fill-opacity="1" fill-rule="nonzero"/></g><g fill="#ff914d" fill-opacity="1"><g transform="translate(57.131291, 30.209442)"><g><path d="M 2.429688 -11.386719 C 1.542969 -11.367188 1.09375 -10.929688 1.09375 -10.0625 L 1.09375 -1.324219 C 1.09375 -0.4375 1.523438 0 2.386719 0 C 3.273438 0 3.722656 -0.4375 3.722656 -1.324219 L 3.722656 -8.738281 L 5.890625 -8.738281 C 6.777344 -8.738281 7.226562 -8.289062 7.226562 -7.390625 L 7.226562 -1.3125 C 7.226562 -0.425781 7.664062 0.0234375 8.542969 0.0234375 C 9.417969 0.0234375 9.855469 -0.417969 9.855469 -1.292969 L 9.832031 -8.738281 L 12.023438 -8.738281 C 12.910156 -8.738281 13.359375 -8.289062 13.359375 -7.390625 L 13.359375 -1.3125 C 13.359375 -0.425781 13.796875 0.0234375 14.671875 0.0234375 C 15.550781 0.0234375 15.988281 -0.417969 15.988281 -1.292969 L 15.988281 -7.335938 C 15.988281 -10.019531 14.671875 -11.367188 12.046875 -11.367188 Z M 2.429688 -11.386719 "/></g></g></g><g fill="#ff914d" fill-opacity="1"><g transform="translate(73.091714, 30.209442)"><g><path d="M 9.460938 -11.398438 C 8.574219 -11.398438 8.125 -10.949219 8.125 -10.0625 L 8.125 -2.640625 L 5.058594 -2.640625 C 4.171875 -2.640625 3.722656 -3.089844 3.722656 -3.984375 L 3.722656 -10.0625 C 3.722656 -10.949219 3.285156 -11.398438 2.410156 -11.398438 C 1.53125 -11.398438 1.09375 -10.960938 1.09375 -10.085938 L 1.09375 -4.039062 C 1.09375 -1.359375 2.410156 -0.0117188 5.039062 -0.0117188 L 9.4375 0 C 10.316406 0 10.753906 -0.425781 10.753906 -1.292969 L 10.753906 -10.0625 C 10.753906 -10.949219 10.328125 -11.398438 9.460938 -11.398438 Z M 9.460938 -11.398438 "/></g></g></g><g fill="#ff914d" fill-opacity="1"><g transform="translate(83.818092, 30.209442)"><g><path d="M 9.855469 -10.0625 C 9.855469 -10.929688 9.417969 -11.367188 8.542969 -11.367188 L 5.039062 -11.367188 C 2.410156 -11.367188 1.105469 -10.214844 1.117188 -7.90625 C 1.117188 -5.539062 2.441406 -4.359375 5.082031 -4.371094 L 5.933594 -4.371094 C 6.800781 -4.359375 7.226562 -4.0625 7.226562 -3.480469 C 7.214844 -2.890625 6.765625 -2.59375 5.902344 -2.59375 L 2.367188 -2.59375 C 1.523438 -2.585938 1.105469 -2.125 1.09375 -1.214844 C 1.105469 -0.40625 1.53125 0 2.375 -0.0117188 L 5.925781 0 C 8.519531 -0.0117188 9.824219 -1.171875 9.832031 -3.503906 C 9.84375 -5.792969 8.542969 -6.964844 5.925781 -7.007812 L 5.070312 -7.007812 C 4.171875 -7.007812 3.722656 -7.292969 3.722656 -7.851562 C 3.722656 -8.441406 4.171875 -8.738281 5.058594 -8.738281 L 8.574219 -8.738281 C 9.417969 -8.761719 9.84375 -9.199219 9.855469 -10.0625 Z M 9.855469 -10.0625 "/></g></g></g><g fill="#ff914d" fill-opacity="1"><g transform="translate(93.657531, 30.209442)"><g><path d="M 5.058594 -1.335938 L 5.058594 -10.0625 C 5.058594 -10.929688 4.621094 -11.378906 3.746094 -11.386719 L 2.429688 -11.367188 C 1.554688 -11.355469 1.117188 -10.894531 1.117188 -10.007812 C 1.105469 -9.164062 1.542969 -8.738281 2.429688 -8.738281 L 2.429688 -1.335938 C 2.429688 -0.449219 2.867188 0 3.757812 0 C 4.621094 0 5.058594 -0.449219 5.058594 -1.335938 Z M 3.667969 -14.882812 C 3 -14.925781 2.332031 -14.277344 2.367188 -13.578125 C 2.34375 -12.910156 2.988281 -12.253906 3.667969 -12.285156 C 4.347656 -12.253906 4.992188 -12.910156 4.972656 -13.578125 C 5.003906 -14.277344 4.335938 -14.925781 3.667969 -14.882812 Z M 3.667969 -14.882812 "/></g></g></g><g fill="#ff914d" fill-opacity="1"><g transform="translate(98.700919, 30.209442)"><g><path d="M 9.460938 -2.59375 L 5.058594 -2.605469 C 4.171875 -2.605469 3.722656 -3.054688 3.722656 -3.941406 L 3.722656 -7.378906 C 3.722656 -8.300781 4.148438 -8.761719 5.003906 -8.761719 L 9.394531 -8.761719 C 10.28125 -8.769531 10.730469 -9.210938 10.742188 -10.0625 C 10.742188 -10.9375 10.28125 -11.378906 9.363281 -11.367188 L 5.039062 -11.367188 C 2.410156 -11.367188 1.09375 -10.042969 1.09375 -7.390625 L 1.09375 -4.007812 C 1.09375 -1.324219 2.410156 0.0234375 5.039062 0.0234375 L 9.4375 0.0234375 C 10.316406 0.0234375 10.753906 -0.40625 10.753906 -1.269531 C 10.753906 -2.15625 10.328125 -2.59375 9.460938 -2.59375 Z M 9.460938 -2.59375 "/></g></g></g><g fill="#ff914d" fill-opacity="1"><g transform="translate(109.427297, 30.209442)"><g><path d="M 5.957031 -2.59375 L 5.058594 -2.605469 C 4.171875 -2.605469 3.722656 -3.054688 3.722656 -3.941406 L 3.722656 -8.761719 L 5.902344 -8.761719 C 6.789062 -8.769531 7.238281 -9.210938 7.238281 -10.0625 C 7.238281 -10.9375 6.777344 -11.378906 5.859375 -11.367188 L 3.722656 -11.378906 L 3.722656 -12.679688 C 3.734375 -13.566406 3.296875 -14.003906 2.410156 -13.996094 C 1.53125 -13.996094 1.09375 -13.554688 1.09375 -12.679688 L 1.09375 -4.007812 C 1.09375 -1.324219 2.410156 0.0234375 5.039062 0.0234375 L 5.933594 0.0234375 C 6.8125 0.0234375 7.25 -0.40625 7.25 -1.269531 C 7.25 -2.15625 6.820312 -2.59375 5.957031 -2.59375 Z M 5.957031 -2.59375 "/></g></g></g></svg>